<svg
  id="Icon_Set"
  enable-background="new 0 0 64 64"
  height="40"
  viewBox="0 0 64 64"
  width="40"
  xmlns="http://www.w3.org/2000/svg"
  >
  <path d="m22 55h-12c-1.105 0-2-.895-2-2v-46c0-1.105.895-2 2-2h12z" fill="#005b8a"/>
  <path d="m22 55.5h-12c-1.378 0-2.5-1.122-2.5-2.5v-46c0-1.378 1.122-2.5 2.5-2.5h12c.276 0 .5.224.5.5v50c0 .276-.224.5-.5.5zm-12-50c-.827 0-1.5.673-1.5 1.5v46c0 .827.673 1.5 1.5 1.5h11.5v-49z" fill="#212a41"/>
  <path d="m10 53.5c-.276 0-.5-.224-.5-.5v-46c0-.276.224-.5.5-.5s.5.224.5.5v46c0 .276-.224.5-.5.5z" fill="#0079a8"/>
  <path d="m22 55h-6c-1.105 0-2-.895-2-2v-46c0-1.105.895-2 2-2h6z" fill="#0079a8"/>
  <path d="m22 55.5h-6c-1.378 0-2.5-1.122-2.5-2.5v-46c0-1.378 1.122-2.5 2.5-2.5h6c.276 0 .5.224.5.5v50c0 .276-.224.5-.5.5zm-6-50c-.827 0-1.5.673-1.5 1.5v46c0 .827.673 1.5 1.5 1.5h5.5v-49z" fill="#212a41"/>
  <path d="m54 5h-32v50h32c1.105 0 2-.895 2-2v-46c0-1.105-.895-2-2-2z" fill="#e0e0e0"/>
  <path d="m54 55.5h-32c-.276 0-.5-.224-.5-.5v-50c0-.276.224-.5.5-.5h32c1.378 0 2.5 1.122 2.5 2.5v46c0 1.378-1.122 2.5-2.5 2.5zm-31.5-1h31.5c.827 0 1.5-.673 1.5-1.5v-46c0-.827-.673-1.5-1.5-1.5h-31.5z" fill="#212a41"/>
  <path d="m47 19h-16c-.552 0-1-.448-1-1v-4c0-.552.448-1 1-1h16c.552 0 1 .448 1 1v4c0 .552-.448 1-1 1z" fill="#b7c0d7"/>
  <path d="m47 19.5h-16c-.827 0-1.5-.673-1.5-1.5v-4c0-.827.673-1.5 1.5-1.5h16c.827 0 1.5.673 1.5 1.5v4c0 .827-.673 1.5-1.5 1.5zm-16-6c-.276 0-.5.224-.5.5v4c0 .276.224.5.5.5h16c.276 0 .5-.224.5-.5v-4c0-.276-.224-.5-.5-.5z" fill="#212a41"/>
  <path d="m16 53.5c-.276 0-.5-.224-.5-.5v-46c0-.276.224-.5.5-.5s.5.224.5.5v46c0 .276-.224.5-.5.5z" fill="#1e97c6"/>
  <path d="m54 53.5c-.276 0-.5-.224-.5-.5v-46c0-.276.224-.5.5-.5s.5.224.5.5v46c0 .276-.224.5-.5.5z" fill="#c2c2c2"/>
  <path d="m17 31.5h-12c-.552 0-1-.448-1-1v-1c0-.552.448-1 1-1h12c.552 0 1 .448 1 1v1c0 .552-.448 1-1 1z" fill="#e0e0e0"/>
  <path d="m17 32h-12c-.827 0-1.5-.673-1.5-1.5v-1c0-.827.673-1.5 1.5-1.5h12c.827 0 1.5.673 1.5 1.5v1c0 .827-.673 1.5-1.5 1.5zm-12-3c-.276 0-.5.224-.5.5v1c0 .276.224.5.5.5h12c.276 0 .5-.224.5-.5v-1c0-.276-.224-.5-.5-.5z" fill="#212a41"/>
  <path d="m17 41.5h-12c-.552 0-1-.448-1-1v-1c0-.552.448-1 1-1h12c.552 0 1 .448 1 1v1c0 .552-.448 1-1 1z" fill="#e0e0e0"/>
  <path d="m17 42h-12c-.827 0-1.5-.673-1.5-1.5v-1c0-.827.673-1.5 1.5-1.5h12c.827 0 1.5.673 1.5 1.5v1c0 .827-.673 1.5-1.5 1.5zm-12-3c-.276 0-.5.224-.5.5v1c0 .276.224.5.5.5h12c.276 0 .5-.224.5-.5v-1c0-.276-.224-.5-.5-.5z" fill="#212a41"/>
  <path d="m17 51.5h-12c-.552 0-1-.448-1-1v-1c0-.552.448-1 1-1h12c.552 0 1 .448 1 1v1c0 .552-.448 1-1 1z" fill="#e0e0e0"/>
  <path d="m17 52h-12c-.827 0-1.5-.673-1.5-1.5v-1c0-.827.673-1.5 1.5-1.5h12c.827 0 1.5.673 1.5 1.5v1c0 .827-.673 1.5-1.5 1.5zm-12-3c-.276 0-.5.224-.5.5v1c0 .276.224.5.5.5h12c.276 0 .5-.224.5-.5v-1c0-.276-.224-.5-.5-.5z" fill="#212a41"/>
  <path d="m17 21.5h-12c-.552 0-1-.448-1-1v-1c0-.552.448-1 1-1h12c.552 0 1 .448 1 1v1c0 .552-.448 1-1 1z" fill="#e0e0e0"/>
  <path d="m17 22h-12c-.827 0-1.5-.673-1.5-1.5v-1c0-.827.673-1.5 1.5-1.5h12c.827 0 1.5.673 1.5 1.5v1c0 .827-.673 1.5-1.5 1.5zm-12-3c-.276 0-.5.224-.5.5v1c0 .276.224.5.5.5h12c.276 0 .5-.224.5-.5v-1c0-.276-.224-.5-.5-.5z" fill="#212a41"/>
  <path d="m17 11.5h-12c-.552 0-1-.448-1-1v-1c0-.552.448-1 1-1h12c.552 0 1 .448 1 1v1c0 .552-.448 1-1 1z" fill="#e0e0e0"/>
  <path d="m17 12h-12c-.827 0-1.5-.673-1.5-1.5v-1c0-.827.673-1.5 1.5-1.5h12c.827 0 1.5.673 1.5 1.5v1c0 .827-.673 1.5-1.5 1.5zm-12-3c-.276 0-.5.224-.5.5v1c0 .276.224.5.5.5h12c.276 0 .5-.224.5-.5v-1c0-.276-.224-.5-.5-.5z" fill="#212a41"/>
  <path d="m55 59h-21c-1.105 0-2-.895-2-2v-25c0-1.105.895-2 2-2h21c1.105 0 2 .895 2 2v25c0 1.105-.895 2-2 2z" fill="#4e4b51"/>
  <path d="m55 59.5h-21c-1.378 0-2.5-1.122-2.5-2.5v-25c0-1.378 1.122-2.5 2.5-2.5h21c1.378 0 2.5 1.122 2.5 2.5v25c0 1.378-1.122 2.5-2.5 2.5zm-21-29c-.827 0-1.5.673-1.5 1.5v25c0 .827.673 1.5 1.5 1.5h21c.827 0 1.5-.673 1.5-1.5v-25c0-.827-.673-1.5-1.5-1.5z" fill="#212a41"/>
  <path d="m58 59h-21c-1.105 0-2-.895-2-2v-25c0-1.105.895-2 2-2h21c1.105 0 2 .895 2 2v25c0 1.105-.895 2-2 2z" fill="#6c696f"/>
  <path d="m58 59.5h-21c-1.378 0-2.5-1.122-2.5-2.5v-25c0-1.378 1.122-2.5 2.5-2.5h21c1.378 0 2.5 1.122 2.5 2.5v25c0 1.378-1.122 2.5-2.5 2.5zm-21-29c-.827 0-1.5.673-1.5 1.5v25c0 .827.673 1.5 1.5 1.5h21c.827 0 1.5-.673 1.5-1.5v-25c0-.827-.673-1.5-1.5-1.5z" fill="#212a41"/>
  <path d="m38 34h19v6h-19z" fill="#e0e0e0"/>
  <path d="m57 40.5h-19c-.276 0-.5-.224-.5-.5v-6c0-.276.224-.5.5-.5h19c.276 0 .5.224.5.5v6c0 .276-.224.5-.5.5zm-18.5-1h18v-5h-18z" fill="#212a41"/>
  <path d="m38 43h4v4h-4z" fill="#e0e0e0"/>
  <path d="m42 47.5h-4c-.276 0-.5-.224-.5-.5v-4c0-.276.224-.5.5-.5h4c.276 0 .5.224.5.5v4c0 .276-.224.5-.5.5zm-3.5-1h3v-3h-3z" fill="#212a41"/>
  <path d="m42 43h4v4h-4z" fill="#e0e0e0"/>
  <path d="m46 47.5h-4c-.276 0-.5-.224-.5-.5v-4c0-.276.224-.5.5-.5h4c.276 0 .5.224.5.5v4c0 .276-.224.5-.5.5zm-3.5-1h3v-3h-3z" fill="#212a41"/>
  <path d="m46 43h4v4h-4z" fill="#e0e0e0"/>
  <path d="m50 47.5h-4c-.276 0-.5-.224-.5-.5v-4c0-.276.224-.5.5-.5h4c.276 0 .5.224.5.5v4c0 .276-.224.5-.5.5zm-3.5-1h3v-3h-3z" fill="#212a41"/>
  <path d="m53 43h4v4h-4z" fill="#e0e0e0"/>
  <path d="m57 47.5h-4c-.276 0-.5-.224-.5-.5v-4c0-.276.224-.5.5-.5h4c.276 0 .5.224.5.5v4c0 .276-.224.5-.5.5zm-3.5-1h3v-3h-3z" fill="#212a41"/>
  <path d="m38 47h4v4h-4z" fill="#e0e0e0"/>
  <path d="m42 51.5h-4c-.276 0-.5-.224-.5-.5v-4c0-.276.224-.5.5-.5h4c.276 0 .5.224.5.5v4c0 .276-.224.5-.5.5zm-3.5-1h3v-3h-3z" fill="#212a41"/>
  <path d="m42 47h4v4h-4z" fill="#e0e0e0"/>
  <path d="m46 51.5h-4c-.276 0-.5-.224-.5-.5v-4c0-.276.224-.5.5-.5h4c.276 0 .5.224.5.5v4c0 .276-.224.5-.5.5zm-3.5-1h3v-3h-3z" fill="#212a41"/>
  <path d="m46 47h4v4h-4z" fill="#e0e0e0"/>
  <path d="m50 51.5h-4c-.276 0-.5-.224-.5-.5v-4c0-.276.224-.5.5-.5h4c.276 0 .5.224.5.5v4c0 .276-.224.5-.5.5zm-3.5-1h3v-3h-3z" fill="#212a41"/>
  <path d="m53 47h4v4h-4z" fill="#e0e0e0"/>
  <path d="m57 51.5h-4c-.276 0-.5-.224-.5-.5v-4c0-.276.224-.5.5-.5h4c.276 0 .5.224.5.5v4c0 .276-.224.5-.5.5zm-3.5-1h3v-3h-3z" fill="#212a41"/>
  <path d="m38 51h4v4h-4z" fill="#e0e0e0"/>
  <path d="m42 55.5h-4c-.276 0-.5-.224-.5-.5v-4c0-.276.224-.5.5-.5h4c.276 0 .5.224.5.5v4c0 .276-.224.5-.5.5zm-3.5-1h3v-3h-3z" fill="#212a41"/>
  <path d="m42 51h4v4h-4z" fill="#e0e0e0"/>
  <path d="m46 55.5h-4c-.276 0-.5-.224-.5-.5v-4c0-.276.224-.5.5-.5h4c.276 0 .5.224.5.5v4c0 .276-.224.5-.5.5zm-3.5-1h3v-3h-3z" fill="#212a41"/>
  <path d="m46 51h4v4h-4z" fill="#e0e0e0"/>
  <path d="m50 55.5h-4c-.276 0-.5-.224-.5-.5v-4c0-.276.224-.5.5-.5h4c.276 0 .5.224.5.5v4c0 .276-.224.5-.5.5zm-3.5-1h3v-3h-3z" fill="#212a41"/>
  <path d="m53 51h4v4h-4z" fill="#d32e5e"/>
  <path d="m57 55.5h-4c-.276 0-.5-.224-.5-.5v-4c0-.276.224-.5.5-.5h4c.276 0 .5.224.5.5v4c0 .276-.224.5-.5.5zm-3.5-1h3v-3h-3z" fill="#212a41"/>
  <path d="m55 38.5c-.276 0-.5-.224-.5-.5v-2c0-.276.224-.5.5-.5s.5.224.5.5v2c0 .276-.224.5-.5.5z" fill="#c2c2c2"/>
  <path d="m40 38.5c-.276 0-.5-.224-.5-.5v-2c0-.276.224-.5.5-.5s.5.224.5.5v2c0 .276-.224.5-.5.5z" fill="#fefefe"/>
</svg>