<svg height="40" viewBox="0 0 64 64" width="40" xmlns="http://www.w3.org/2000/svg"><g id="Layer_34" data-name="Layer 34"><g id="website"><path d="m61 11v48a2.006 2.006 0 0 1 -2 2h-54a2.006 2.006 0 0 1 -2-2v-48z" fill="#57a4ff"/><path d="m61 11v48a2.006 2.006 0 0 1 -2 2h-5a2.006 2.006 0 0 0 2-2v-48z" fill="#2488ff"/><path d="m61 5v6h-58v-6a2.006 2.006 0 0 1 2-2h54a2.006 2.006 0 0 1 2 2z" fill="#ff7956"/><path d="m61 5v6h-5v-6a2.006 2.006 0 0 0 -2-2h5a2.006 2.006 0 0 1 2 2z" fill="#ff6243"/><path d="m57 51-1.98.49 1.05 1.75-2.83 2.83-1.75-1.05-.49 1.98h-4l-.49-1.98-1.75 1.05-2.83-2.83.74-1.24 6.66-11h1.67l.49 1.98 1.75-1.05 2.83 2.83-1.05 1.75 1.98.49z" fill="#b39a7c"/><circle cx="48" cy="24" fill="#ffde55" r="9"/><path d="m57 24a9 9 0 0 1 -17.04 4.04 9 9 0 0 0 12.08-12.08 8.993 8.993 0 0 1 4.96 8.04z" fill="#ffcd00"/><path d="m52 49a3 3 0 0 1 -5.53 1.61l.77.46 2.83-2.83-1.05-1.75 1.09-.27a2.97 2.97 0 0 1 1.89 2.78z" fill="#ffde55"/><path d="m51 42v4l-.89.22-1.09.27 1.05 1.75-2.83 2.83-.77-.46-.98-.59-.49 1.98h-4l-.49-1.98-1.75 1.05-2.83-2.83 1.05-1.75-1.98-.49v-4l1.98-.49-1.05-1.75 2.83-2.83 1.75 1.05.49-1.98h4l.49 1.98 1.75-1.05 2.83 2.83-.74 1.24-.31.51zm-5 2a3 3 0 1 0 -3 3 3 3 0 0 0 3-3z" fill="#c0ab91"/><circle cx="43" cy="44" fill="#ffde55" r="3"/><g fill="#00d7df"><path d="m26 43h4v14h-4z"/><path d="m18 46h4v11h-4z"/><path d="m10 49h4v8h-4z"/></g><path d="m28 43h2v14h-2z" fill="#00b6bd"/><path d="m20 46h2v11h-2z" fill="#00b6bd"/><path d="m12 49h2v8h-2z" fill="#00b6bd"/><path d="m59 2h-54a3.009 3.009 0 0 0 -3 3v54a3.009 3.009 0 0 0 3 3h54a3.009 3.009 0 0 0 3-3v-54a3.009 3.009 0 0 0 -3-3zm1 57a1 1 0 0 1 -1 1h-54a1 1 0 0 1 -1-1v-47h56zm0-49h-56v-5a1 1 0 0 1 1-1h54a1 1 0 0 1 1 1z"/><path d="m25.2 35.4-2.7 3.6h-5.5a1 1 0 0 0 -.707.293l-2.707 2.707h-4.586v2h5a1 1 0 0 0 .707-.293l2.707-2.707h5.586a1 1 0 0 0 .8-.4l2.7-3.6h4.5v-2h-5a1 1 0 0 0 -.8.4z"/><path d="m22 45h-4a1 1 0 0 0 -1 1v11a1 1 0 0 0 1 1h4a1 1 0 0 0 1-1v-11a1 1 0 0 0 -1-1zm-1 11h-2v-9h2z"/><path d="m14 48h-4a1 1 0 0 0 -1 1v8a1 1 0 0 0 1 1h4a1 1 0 0 0 1-1v-8a1 1 0 0 0 -1-1zm-1 8h-2v-6h2z"/><path d="m30 42h-4a1 1 0 0 0 -1 1v14a1 1 0 0 0 1 1h4a1 1 0 0 0 1-1v-14a1 1 0 0 0 -1-1zm-1 14h-2v-12h2z"/><path d="m6 6h2v2h-2z"/><path d="m10 6h2v2h-2z"/><path d="m14 6h2v2h-2z"/><path d="m27.293 14.293-4 4 1.414 1.414 2.293-2.293v15.586h2v-15.586l2.293 2.293 1.414-1.414-4-4a1 1 0 0 0 -1.414 0z"/><path d="m19 27.414v9.586h2v-9.586l2.293 2.293 1.414-1.414-4-4a1 1 0 0 0 -1.414 0l-4 4 1.414 1.414z"/><path d="m9 40h2v-3.586l2.293 2.293 1.414-1.414-4-4a1 1 0 0 0 -1.414 0l-4 4 1.414 1.414 2.293-2.293z"/><path d="m47 44a4 4 0 1 0 -4 4 4 4 0 0 0 4-4zm-6 0a2 2 0 1 1 2 2 2 2 0 0 1 -2-2z"/><path d="m57.24 46.03-.67-.17.36-.59a1.014 1.014 0 0 0 -.15-1.22l-2.83-2.83a1.014 1.014 0 0 0 -1.22-.15l-.59.36-.17-.67a.982.982 0 0 0 -.94-.75 1 1 0 0 0 -.25-.96l-2.83-2.83a1.012 1.012 0 0 0 -1.22-.15l-.59.36-.17-.67a1 1 0 0 0 -.97-.76h-4a1 1 0 0 0 -.97.76l-.17.67-.59-.36a1.014 1.014 0 0 0 -1.22.15l-2.83 2.83a1 1 0 0 0 -.15 1.22l.36.59-.67.17a1 1 0 0 0 -.76.97v4a1 1 0 0 0 .76.97l.67.17-.36.59a1 1 0 0 0 .15 1.22l2.83 2.83a1 1 0 0 0 1.22.15l.59-.36.17.67a.982.982 0 0 0 .94.75 1 1 0 0 0 .25.96l2.83 2.83a1.014 1.014 0 0 0 1.22.15l.59-.36.17.67a1 1 0 0 0 .97.76h4a1 1 0 0 0 .97-.76l.17-.67.59.36a1.014 1.014 0 0 0 1.22-.15l2.83-2.83a1.014 1.014 0 0 0 .15-1.22l-.36-.59.67-.17a1 1 0 0 0 .76-.97v-4a1 1 0 0 0 -.76-.97zm-6.28 2.67c.01.1.04.2.04.3a2.006 2.006 0 0 1 -2 2 1.967 1.967 0 0 1 -.24-.03l2.02-2.02a1.138 1.138 0 0 0 .18-.25zm-9.48 1.08a1.007 1.007 0 0 0 -.59-.68.989.989 0 0 0 -.9.07l-1.08.64-1.72-1.72.65-1.08a1.019 1.019 0 0 0 .06-.9 1.007 1.007 0 0 0 -.68-.59l-1.22-.3v-2.44l1.22-.3a1.007 1.007 0 0 0 .68-.59 1.019 1.019 0 0 0 -.06-.9l-.65-1.08 1.72-1.72 1.08.64a.987.987 0 0 0 .9.07 1.007 1.007 0 0 0 .59-.68l.3-1.22h2.44l.3 1.22a1.007 1.007 0 0 0 .59.68.989.989 0 0 0 .9-.07l1.08-.64 1.72 1.72-.65 1.08a1.019 1.019 0 0 0 -.06.9 1.007 1.007 0 0 0 .68.59l1.22.3v2.44l-1.22.3a1.007 1.007 0 0 0 -.68.59 1.019 1.019 0 0 0 .06.9l.65 1.08-1.72 1.72-1.08-.64a.989.989 0 0 0 -.9-.07 1.007 1.007 0 0 0 -.59.68l-.3 1.22h-2.44zm14.52.44-1.22.3a.984.984 0 0 0 -.68.59 1 1 0 0 0 .06.89l.65 1.08-1.72 1.73-1.09-.65a.967.967 0 0 0 -.89-.06.984.984 0 0 0 -.59.68l-.3 1.22h-2.44l-.3-1.22a.984.984 0 0 0 -.59-.68.967.967 0 0 0 -.89.06l-1.09.65-1.72-1.73.05-.08h1.76a1 1 0 0 0 .97-.76l.13-.5a3.931 3.931 0 0 0 2.9 1.26 4.006 4.006 0 0 0 2.95-6.71.929.929 0 0 0 .05-.29v-2.16l1.09-.65 1.72 1.73-.65 1.08a1 1 0 0 0 -.06.89.984.984 0 0 0 .68.59l1.22.3z"/><path d="m48 14a10 10 0 1 0 10 10 10.016 10.016 0 0 0 -10-10zm0 18a8 8 0 1 1 8-8 8.011 8.011 0 0 1 -8 8z"/><path d="m47 22v1h3a1 1 0 0 1 1 1v3a1 1 0 0 1 -1 1h-1v2h-2v-2h-2v-2h4v-1h-3a1 1 0 0 1 -1-1v-3a1 1 0 0 1 1-1h1v-2h2v2h2v2z"/></g></g></svg>