<svg xmlns="http://www.w3.org/2000/svg" enable-background="new 0 0 67 67"
     height="40" viewBox="0 0 67 67" width="40"><rect width="37.384" height="28.007" x="27.639" y="28.155" fill="#BDD7F0"/><rect width="31.649" height="22.271" x="30.505" y="31.02" fill="#FFF"/><rect width="21.276" height="2.721" x="34.742" y="62.195" fill="#BDD7F0"/><path fill="#3EBDA7" d="M40.40884,17.95088c0,3.14248-2.58442,5.7563-5.77578,5.7563c-0.0098,0-0.0098,0-0.0098,0
			L7.20308,23.58959c-1.45861,0-2.91723-0.48947-3.9647-1.50761c-1.56628-1.50749-2.27115-3.89617-1.34115-6.36312
			c1.40262-3.66312,5.30368-3.52323,5.40378-3.55345c0.61999-4.03731,5.1801-6.20916,8.77128-3.98436
			c0.88107-2.72149,3.4459-4.66957,6.45125-4.66957c2.69209,0,5.03178,1.53701,6.10859,3.79842
			c0.08813-0.0196,0.1762-0.0196,0.23494-0.0196c2.88789,0,5.28631,2.13403,5.71705,4.87511h0.04893
			C37.82442,12.16542,40.40884,14.76932,40.40884,17.95088z"/><rect width="6.627" height="6.627" x="12.532" y="29.934" fill="#FFF"/><rect width="6.627" height="6.627" x="11.656" y="30.884" fill="#48A0D9"/><rect width="5.415" height="5.415" x="32.909" y="46.277" fill="#BDD7F0"/><rect width="5.415" height="5.415" x="42.244" y="46.277" fill="#48A0D9"/><rect width="5.415" height="5.415" x="51.579" y="46.277" fill="#F6968A"/><rect width="9.985" height="5.306" x="40.051" y="35.179" fill="#BDD7F0"/><path fill="#223059" d="M65.51943,56.66369V27.65368h-38.38v17.22998H16.33944v-7.82007h3.31995v-7.62988h-3.31995V22.7937
			c11.18472,0.04077,7.80529,0.02845,19.19,0.06995c3.44995,0,6.26996-2.75,6.26996-6.12988
			c0-3.27002-2.59998-5.95007-5.90997-6.15015c-0.64001-2.73999-3.17004-4.76001-6.06-4.78992
			c-1.23999-2.26001-3.72003-3.71008-6.41003-3.71008c-2.96997,0-5.59998,1.72998-6.71997,4.36011
			c-3.60797-1.7632-8.01857,0.20012-8.91998,4.12988c-3.29004,0.18005-5.91003,2.87012-5.91003,6.16016
			c0,2.91992,2.12,5.44995,5.13,6.0199l8.34003,0.03003v6.65002h-3.31v7.62988h3.31v8.82007h11.79999v10.78003h14.53998
			c0.14001,1.42993-0.5,2.77002-1.95001,4.08008h-4.45996v3.72998h22.13v-3.72998h-4.46002
			c-1.45001-1.31006-2.09003-2.65015-1.95001-4.08008H65.51943z M7.09939,21.75366c-2.44995-0.45996-4.22998-2.57996-4.22998-5.0199
			c0-2.8501,2.35999-5.17017,5.32001-5.17017h0.42999l0.07001-0.41992c0.57342-3.70508,4.84291-5.49757,8.01001-3.56006
			l0.53998,0.33008c0.07122-0.1,1.10521-4.83008,6.17999-4.83008c4.35253,0,5.72937,3.66952,5.82001,3.77002
			c2.71661-0.34641,5.30665,1.60814,5.75,4.29004l0.10999,0.41992h0.43005c2.89996,0,5.26996,2.32007,5.26996,5.17017
			c0,2.82983-2.37,5.12988-5.26996,5.12988v0.5l-0.01001-0.5L7.09939,21.75366z M13.02944,36.06359v-5.62988h2.31h1h2.31995v5.62988
			h-2.31995h-1H13.02944z M56.39944,61.74377v1.72998h-20.13v-1.72998C43.61204,61.74377,48.9169,61.74377,56.39944,61.74377z
			 M51.52944,60.74377H41.13943c1.14001-1.28003,1.65997-2.65015,1.54999-4.08008h7.28998
			C49.86941,58.09362,50.38943,59.46374,51.52944,60.74377z M28.13943,55.66369V28.65368h36.38v27.01001
			C53.00787,55.66369,42.45247,55.66369,28.13943,55.66369z"/><path fill="#223059" d="M62.65939,30.52368H30.00942V53.7937h32.64996V30.52368z M61.65939,52.7937H31.00942V31.52368h30.64997
			V52.7937z"/><path fill="#223059" d="M40.19942,48.22595h2.91998v2.70776h6.41998v-2.70776h2.92004v2.70776h6.40997v-6.42004h-6.40997v2.71228
			h-2.92004v-2.71228h-2.70502v-4.81995h4.99506v-6.31006H40.83944v6.31006h4.99493v4.81995h-2.71497v2.71228h-2.91998v-2.71228
			h-6.41003v6.42004h6.41003V48.22595z M53.45943,45.51367h4.40997v4.42004h-4.40997V45.51367z M41.83944,34.38366h8.98999v4.31006
			h-8.98999V34.38366z M44.11941,45.51367h4.41998v4.42004h-4.41998V45.51367z M39.19942,49.93371h-4.41003v-4.42004h4.41003
			V49.93371z"/></svg>