<svg id="Layer_5" enable-background="new 0 0 64 64" height="40" viewBox="0 0 64 64" width="40" xmlns="http://www.w3.org/2000/svg"><g><g><path d="m38.394 22.411c-.411-1.561-1.032-3.057-1.851-4.46l1.23-2.461-5.262-5.262-2.461 1.23c-1.403-.819-2.899-1.44-4.46-1.851l-.869-2.607h-7.441l-.869 2.606c-1.561.411-3.057 1.032-4.46 1.851l-2.461-1.23-5.262 5.262 1.23 2.461c-.819 1.403-1.44 2.899-1.851 4.46l-2.607.869v7.441l2.606.869c.411 1.561 1.032 3.057 1.851 4.46l-1.23 2.461 5.262 5.262 2.463-1.231c.329.189.676.373 1.047.555v3.181c.296-.171.635-.277 1.001-.277h14c.366 0 .705.106 1 .277v-3.181c.372-.182.719-.366 1.047-.555l2.463 1.231 5.262-5.262-1.23-2.461c.819-1.403 1.44-2.899 1.851-4.46l2.607-.868v-7.441zm-17.394 15.589c-6.075 0-11-4.925-11-11s4.925-11 11-11 11 4.925 11 11-4.925 11-11 11z" fill="#f0bc5e"/></g><g><path d="m30 7h7v4h22v-10h-22v4h-9v5.434c.684.29 1.352.621 2 .997zm9-4h18v6h-18z"/><path d="m21 33c3.309 0 6-2.691 6-6s-2.691-6-6-6-6 2.691-6 6 2.691 6 6 6zm0-10c2.206 0 4 1.794 4 4s-1.794 4-4 4-4-1.794-4-4 1.794-4 4-4z"/><path d="m28 45h-14c-1.654 0-3 1.346-3 3 0 1.302.839 2.402 2 2.816v.184c0 4.411 3.589 8 8 8s8-3.589 8-8v-.184c1.161-.414 2-1.514 2-2.816 0-1.654-1.346-3-3-3zm-7 12c-3.309 0-6-2.691-6-6h12c0 3.309-2.691 6-6 6zm7-8h-14c-.551 0-1-.449-1-1s.449-1 1-1h14c.551 0 1 .449 1 1s-.449 1-1 1z"/><path d="m21 39c6.617 0 12-5.383 12-12s-5.383-12-12-12-12 5.383-12 12 5.383 12 12 12zm0-22c5.514 0 10 4.486 10 10s-4.486 10-10 10-10-4.486-10-10 4.486-10 10-10z"/><path d="m45 57h2v2h-2z"/><path d="m49 57h2v2h-2z"/><path d="m53 57h2v2h-2z"/><path d="m41 57h2v2h-2z"/><path d="m49 5h2v2h-2z"/><path d="m53 5h2v2h-2z"/><path d="m45 5h2v2h-2z"/><path d="m41 5h2v2h-2z"/><path d="m45 15v4h-7.891c.324.65.601 1.318.842 2h7.049v4h18v-10zm16 8h-14v-6h14z"/><path d="m53 19h2v2h-2z"/><path d="m57 19h2v2h-2z"/><path d="m49 19h2v2h-2z"/><path d="m45 31h-4.838l-1.768.589c-.126.477-.278.946-.442 1.411h7.048v4h4v2.382l-11.236 5.618 11.236 5.618v2.382h-12v4h-2v-15.716l-2 2v15.716h4v4h22v-10h-8v-2.382l11.236-5.618-11.236-5.618v-2.382h12v-10h-18zm12 30h-18v-6h18zm-7-12.118-7.764-3.882 7.764-3.882 7.764 3.882zm-3-19.882h14v6h-14z"/><path d="m49 31h2v2h-2z"/><path d="m53 31h2v2h-2z"/><path d="m57 31h2v2h-2z"/><path d="m47 44h2v2h-2z"/><path d="m51 44h2v2h-2z"/></g></g></svg>