<svg height="40" viewBox="0 0 59 59" width="40" xmlns="http://www.w3.org/2000/svg"><g id="002---Investment-Advisor" fill="none"><path id="Shape" d="m57 47h-4v-4h3c.5522847 0 1-.4477153 1-1v-10c0-.5522847-.4477153-1-1-1h-14c-.5522847 0-1 .4477153-1 1v7.87c-.8916374-.540743-1.8638657-.9357108-2.88-1.17-1.174757-.2736745-2.2531354-.8612524-3.12-1.7v-2.64l-.3.3c1.95-1.85 1.9-3.63 1.82-5.42 1.3322334-.7251871 2.2494896-2.0307979 2.48-3.53.05-.82.1-2.39-.35-2.62-.61-.31-1.55.59-1.55.59-.5677563-.7483798-.9452434-1.6234635-1.1-2.55-.21-1.13-1.4-3.13-7-3.13s-6.79 2-7 3.14c-.1466135.9236214-.5136403 1.7983114-1.07 2.55-.11-.11-1-.88-1.55-.59s-.4 1.8-.35 2.62c.2239004 1.4933944 1.1292679 2.7978627 2.45 3.53-.08 1.79-.13 3.57 1.82 5.42l-.3-.3v2.63c-.4138794.4309928-.8972858.7893221-1.43 1.06-1.74 1-1.87.29-4.56 1.81v-7.87c0-.5522847-.4477153-1-1-1h-14.01c-.55228475 0-1 .4477153-1 1v10c0 .5522847.44771525 1 1 1h3v4h-4c-.55228475 0-1 .4477153-1 1v2c0 .5522847.44771525 1 1 1h1v7c0 .5522847.44771525 1 1 1h2c.55228475 0 1-.4477153 1-1v-7h6v7c0 .5522847.4477153 1 1 1h32c.5522847 0 1-.4477153 1-1v-7h6v7c0 .5522847.4477153 1 1 1h2c.5522847 0 1-.4477153 1-1v-7h1c.5522847 0 1-.4477153 1-1v-2c0-.5522847-.4477153-1-1-1z" fill="#894b9d"/><path id="Shape" d="m57 32v10c0 .5522847-.4477153 1-1 1h-10.56c-.81-1.37-2.2-1.86-4.44-3.13v-7.87c0-.5522847.4477153-1 1-1h14c.5522847 0 1 .4477153 1 1z" fill="#b0d3f0"/><path id="Shape" d="m57 32v.56l-4.23 5.08c-.2988184.3572866-.8047379.4609586-1.22.25l-1.21-.6-1.51 2.26c-.3051825.456275-.9211173.5812473-1.38.28l-2.06-1.37-1.48 3c-.17545.338889-.528479.5483788-.91.54-.3465932-.0010489-.6679286-.1814922-.8492369-.4768822-.1813084-.2953899-.1967323-.6635996-.0407631-.9731178 0-.1-.08.15 2-4 .1294113-.2530177.3603649-.4390222.6351505-.5115351.2747855-.0725129.5674452-.024684.8048495.1315351l2.17 1.44 1.45-2.16c.2797259-.4201147.8286691-.5659277 1.28-.34l1.29.64 3.95-4.75h.31c.5522847 0 1 .4477153 1 1z" fill="#e64c3c"/><path id="Shape" d="m48 26h-9c-.5522847 0-1-.4477153-1-1s.4477153-1 1-1h9c.5522847 0 1-.4477153 1-1v-6c0-.5522847.4477153-1 1-1s1 .4477153 1 1v6c0 1.6568542-1.3431458 3-3 3z" fill="#95a5a5"/><path id="Shape" d="m19 26h-12c-1.65685425 0-3-1.3431458-3-3v-6c0-.5522847.44771525-1 1-1s1 .4477153 1 1v6c0 .5522847.44771525 1 1 1h12c.5522847 0 1 .4477153 1 1s-.4477153 1-1 1z" fill="#95a5a5"/><path id="Shape" d="m29 46-4 13h-12c-.5522847 0-1-.4477153-1-1v-13c.0452069-1.6818639 1.0584015-3.1860682 2.6-3.86 2.7-1.44 3.71-2.19 5.28-2.48 1.1705144-.2622641 2.248469-.8357912 3.12-1.66v2c.1512028 1.8222714 1.4666454 3.3360423 3.25 3.74z" fill="#894b9d"/><path id="Shape" d="m46 45v13c0 .5522847-.4477153 1-1 1h-12l-4-13 2.74-3.27c1.7840079-.3990365 3.1033852-1.9086307 3.26-3.73v-2c.8653863.8427942 1.9439924 1.4339534 3.12 1.71 1.57.29 2.59 1 5.28 2.48 1.5256786.6662136 2.5358102 2.1464449 2.6 3.81z" fill="#894b9d"/><path id="Shape" d="m31.78 42.69-2.78 3.31-2.74-3.27c-.1616112-.187233-.2410265-.4316522-.2203308-.6781194.0206957-.2464671.1397591-.4742202.3303308-.6318806l2.63-2.42 2.67 2.39c.1875686.1574224.3046389.3831266.3252853.6271297.0206465.2440031-.0568348.4861694-.2152853.6728703z" fill="#e64c3c"/><path id="Shape" d="m26.33 41.38c-.1905717.1576604-.3096351.3854135-.3303308.6318806-.0206957.2464672.0587196.4908864.2203308.6781194-1.7552653-.4094141-3.0520342-1.8954628-3.22-3.69v-4.64l.3.3c2.28 2.17 2.28 4.34 4.56 4.34h1.14z" fill="#b49aca"/><path id="Shape" d="m33 59h-8l4-13z" fill="#e64c3c"/><path id="Shape" d="m35 34.36v4.64c-.1512028 1.8222714-1.4666454 3.3360423-3.25 3.74.1616112-.187233.2410265-.4316522.2203308-.6781194-.0206957-.2464671-.1397591-.4742202-.3303308-.6318806l-2.64-2.43h1.14c2.28 0 2.28-2.16 4.56-4.33z" fill="#b49aca"/><path id="Shape" d="m20.93 23.68c-1.2687816-1.9963391-1.9385794-4.314603-1.93-6.68.1532962-2.4520411.5895248-4.8781432 1.3-7.23.0864073-.35666237.3612312-.63734259.7159926-.73125002.3547615-.09390744.7324591.0140465.9840074.28125002.7634965.8246591 1.9555465 1.0948571 3 .68 4-1 14-2 14 7 .0104947 2.3687953-.6593794 4.690794-1.93 6.69z" fill="#cb8252"/><path id="Shape" d="m39 25.71c-.2239004 1.4933944-1.1292679 2.7978627-2.45 3.53.08 1.79.13 3.57-1.82 5.42-2.31 2.17-2.31 4.34-4.59 4.34h-2.28c-2.28 0-2.28-2.16-4.56-4.33-1.95-1.85-1.9-3.63-1.82-5.42-1.334772-.7272438-2.2524124-2.0371016-2.48-3.54-.05-.82-.1-2.38.35-2.62.0898462-.0447573.18977-.0654312.29-.06.4760765.0842371.9154116.3108783 1.26.65.5677563-.7483798.9452434-1.6234635 1.1-2.55.21-1.13 1.4-3.13 7-3.13s6.79 2 7 3.14c.1466135.9236214.5136403 1.7983114 1.07 2.55 0 0 .94-.9 1.55-.59.45.22.38 1.79.38 2.61z" fill="#fdd7ad"/><path id="Shape" d="m42 53h-6c-.5522847 0-1-.4477153-1-1s.4477153-1 1-1h6c.5522847 0 1 .4477153 1 1s-.4477153 1-1 1z" fill="#b49aca"/><path id="Shape" d="m22 53h-6c-.5522847 0-1-.4477153-1-1s.4477153-1 1-1h6c.5522847 0 1 .4477153 1 1s-.4477153 1-1 1z" fill="#b49aca"/><circle id="Oval" cx="50" cy="9" fill="#f3d55b" r="8"/><g fill="#24ae5f"><path id="Shape" d="m5 12.5c-2.54 0-3.53-.87-3.71-1-.41421356-.3921222-.43212217-1.0457864-.04-1.46.39212217-.41421356 1.04578644-.43212217 1.46-.04.69943002.3832507 1.49447981.5568423 2.29.5.75 0 2-.16 2-1.25 0-.84-.32-1-2.12-1.26-1.45-.18-3.88-.48-3.88-3.24 0-2.11 2.06-3.25 4-3.25 1.53396978-.09936095 3.00733609.61453819 3.88 1.88.27614237.48324916.10824916 1.09885763-.375 1.375s-1.09885763.10824916-1.375-.375c-.83-1.38-4.13-1.07-4.13.37 0 .84.32 1 2.12 1.26 1.45.18 3.88.48 3.88 3.24 0 1.5-1 3.25-4 3.25z"/><path id="Shape" d="m5 14c-.55228475 0-1-.4477153-1-1v-1.5c0-.5522847.44771525-1 1-1s1 .4477153 1 1v1.5c0 .5522847-.44771525 1-1 1z"/><path id="Shape" d="m5 3.5c-.55228475 0-1-.44771525-1-1v-1.5c0-.55228475.44771525-1 1-1s1 .44771525 1 1v1.5c0 .55228475-.44771525 1-1 1z"/></g><path id="Shape" d="m1 47h11v4h-11c-.55228475 0-1-.4477153-1-1v-2c0-.5522847.44771525-1 1-1z" fill="#cb8252"/><path id="Shape" d="m2 51h4v7c0 .5522847-.44771525 1-1 1h-2c-.55228475 0-1-.4477153-1-1z" fill="#a56a43"/><path id="Shape" d="m47 47h11v4h-11c-.5522847 0-1-.4477153-1-1v-2c0-.5522847.4477153-1 1-1z" fill="#cb8252" transform="matrix(-1 0 0 -1 104 98)"/><path id="Shape" d="m53 51h2c.5522847 0 1 .4477153 1 1v7h-4v-7c0-.5522847.4477153-1 1-1z" fill="#a56a43" transform="matrix(-1 0 0 -1 108 110)"/><path id="Shape" d="m45.44 43c.7 1.18.56 2.12.56 4h7v-4z" fill="#3f5c6c"/><path id="Shape" d="m2 31h14c.5522847 0 1 .4477153 1 1v7.87c-2.35 1.32-3.65 1.8-4.44 3.13h-10.56c-.55228475 0-1-.4477153-1-1v-10c0-.5522847.44771525-1 1-1z" fill="#b0d3f0"/><path id="Shape" d="m12.56 43c-.7 1.18-.56 2.12-.56 4h-7v-4z" fill="#3f5c6c"/><path id="Shape" d="m13 36h-8c-.55228475 0-1-.4477153-1-1s.44771525-1 1-1h8c.5522847 0 1 .4477153 1 1s-.4477153 1-1 1z" fill="#3b97d3"/><path id="Shape" d="m9 40h-4c-.55228475 0-1-.4477153-1-1s.44771525-1 1-1h4c.55228475 0 1 .4477153 1 1s-.44771525 1-1 1z" fill="#3b97d3"/><path id="Shape" d="m50 18c-4.9705627 0-9-4.0294373-9-9 0-4.97056275 4.0294373-9 9-9s9 4.02943725 9 9c0 2.3869484-.9482116 4.6761336-2.636039 6.363961s-3.9770126 2.636039-6.363961 2.636039zm0-16c-2.8312357 0-5.3836897 1.70549525-6.4671567 4.32121597-1.083467 2.61572073-.4845767 5.62654553 1.5174092 7.62853153 2.001986 2.0019859 5.0128108 2.6008762 7.6285315 1.5174092 2.6157208-1.083467 4.321216-3.635921 4.321216-6.4671567 0-3.86599325-3.1340068-7-7-7z" fill="#393f4a"/><circle id="Oval" cx="50" cy="13" fill="#393f4a" r="1"/><path id="Shape" d="m50 10c-.5522847 0-1-.44771525-1-1v-4c0-.55228475.4477153-1 1-1s1 .44771525 1 1v4c0 .55228475-.4477153 1-1 1z" fill="#393f4a"/></g></svg>