<svg height="40" viewBox="0 0 480.00639 480" width="40" xmlns="http://www.w3.org/2000/svg"><path d="m458.664062 158.003906-15.648437 3.34375 11.296875 53.007813 13.488281-13.480469zm0 0" fill="#c7c7c5"/><path d="m168 472.003906-160-160 304-304 144 16 16 144zm0 0" fill="#ffb531"/><path d="m472 168.003906-16-144-37.175781-4.128906c-41.480469 204.679688-256.488281 302.664062-364.097657 338.855469l113.273438 113.273437zm0 0" fill="#ffa912"/><path d="m424 72.003906c0 8.835938-7.164062 16-16 16s-16-7.164062-16-16c0-8.835937 7.164062-16 16-16s16 7.164063 16 16zm0 0" fill="#e8770c"/><g fill="#f98500"><path d="m58.351562 311.148438 51.996094-51.996094 11.3125 11.3125-51.996094 51.996094zm0 0"/><path d="m83.140625 335.949219 52-52 11.3125 11.316406-51.996094 51.996094zm0 0"/><path d="m107.941406 360.75 52-52 11.3125 11.3125-51.996094 52zm0 0"/><path d="m132.742188 385.546875 52-51.996094 11.3125 11.3125-51.996094 52zm0 0"/><path d="m157.542969 410.347656 52-51.996094 11.3125 11.3125-51.996094 51.996094zm0 0"/></g><path d="m216 152.007812 80-80 112 112-80 80zm0 0" fill="#ffcb73"/><path d="m451.03125 443.035156-75.03125-75.03125-24 24 75.03125 75.03125c6.628906 6.628906 17.375 6.628906 24 0 6.628906-6.628906 6.628906-17.371094 0-24zm0 0" fill="#348fd9"/><path d="m403.328125 395.332031-27.328125-27.328125-24 24 28.472656 28.472656c8.765625-7.261718 16.460938-15.726562 22.855469-25.144531zm0 0" fill="#2d7dbf"/><path d="m408 312.003906c0 66.273438-53.726562 120-120 120s-120-53.726562-120-120c0-66.273437 53.726562-120 120-120s120 53.726563 120 120zm0 0" fill="#348fd9"/><path d="m376 312.003906c0 48.601563-39.398438 88-88 88s-88-39.398437-88-88c0-48.601562 39.398438-88 88-88s88 39.398438 88 88zm0 0" fill="#5ac6d4"/><path d="m360 312.003906c0 39.765625-32.234375 72-72 72s-72-32.234375-72-72 32.234375-72 72-72 72 32.234375 72 72zm0 0" fill="#60d1e0"/><path d="m296 304.003906h-16c-4.417969 0-8-3.582031-8-8v-8c0-4.417968 3.582031-8 8-8h16c4.417969 0 8 3.582032 8 8h16c0-13.253906-10.746094-24-24-24v-16h-16v16c-13.253906 0-24 10.746094-24 24v8c0 13.253906 10.746094 24 24 24h16c4.417969 0 8 3.582032 8 8v8c0 4.417969-3.582031 8-8 8h-16c-4.417969 0-8-3.582031-8-8h-16c0 13.253906 10.746094 24 24 24v16h16v-16c13.253906 0 24-10.746094 24-24v-8c0-13.253906-10.746094-24-24-24zm0 0" fill="#f35244"/><path d="m200 184.003906h-56l8 40-56-40h-56c-17.671875 0-32-14.328125-32-32v-112c0-17.671875 14.328125-32 32-32h160c17.671875 0 32 14.328125 32 32v112c0 17.671875-14.328125 32-32 32zm0 0" fill="#60d1e0"/><path d="m215.617188 12.234375c-49.328126 86.082031-142.890626 135.929687-199.839844 160.464844 6.019531 7.144531 14.878906 11.277343 24.222656 11.304687h56l56 40-8-40h56c17.671875 0 32-14.328125 32-32v-112c-.027344-11.542968-6.296875-22.164062-16.382812-27.769531zm0 0" fill="#5ac6d4"/><path d="m208 160.003906h-168c-4.417969 0-8-3.582031-8-8v-112h16v104h160zm0 0" fill="#3fb7c7"/><path d="m160 128.003906c-2.371094 0-4.625-1.050781-6.144531-2.871094l-33.144531-39.777343-26.054688 39.085937c-1.433594 2.152344-3.816406 3.480469-6.398438 3.5625-2.585937.015625-5.03125-1.167968-6.625-3.199218l-17.632812-23.464844-17.601562 23.464844-12.796876-9.601563 24-32c1.574219-1.914063 3.921876-3.023437 6.398438-3.023437s4.824219 1.109374 6.398438 3.023437l17.21875 22.960937 25.726562-38.601562c1.398438-2.097656 3.707031-3.414062 6.226562-3.550781 2.519532-.136719 4.957032.925781 6.574219 2.863281l32.527344 39.039062 34.335937-61.789062 13.984376 7.757812-40 72c-1.28125 2.304688-3.613282 3.832032-6.238282 4.082032-.25.027344-.503906.039062-.753906.039062zm0 0" fill="#f35244"/><path d="m467.800781 200.875-13.488281 13.480469 9.472656 44.464843c.765625 3.964844-.695312 8.035157-3.816406 10.605469-3.117188 2.570313-7.394531 3.226563-11.140625 1.710938s-6.363281-4.957031-6.820313-8.972657l-27.609374-187.425781c-.375-2.863281-2.269532-5.300781-4.949219-6.378906-2.683594-1.074219-5.738281-.621094-7.988281 1.1875-2.253907 1.808594-3.355469 4.695313-2.886719 7.542969l27.5625 187.203125c1.207031 9.839843 7.710937 18.230469 16.941406 21.855469s19.707031 1.90625 27.292969-4.484376c7.582031-6.390624 11.058594-16.421874 9.054687-26.132812zm0 0" fill="#d6d6d4"/><path d="m162.34375 477.660156c3.125 3.121094 8.1875 3.121094 11.3125 0l40-40-11.3125-11.3125-34.34375 34.34375-148.6875-148.6875 90.34375-90.34375-11.3125-11.3125-96 96c-3.121094 3.125-3.121094 8.1875 0 11.3125zm0 0"/><path d="m479.953125 167.125-16-144c-.414063-3.722656-3.351563-6.664062-7.074219-7.074219l-144-15.9999998c-2.410156-.2539062-4.8125.5898438-6.535156 2.2968748l-56 56 11.3125 11.3125 53.28125-53.28125 133.863281 14.863282 14.863281 133.824218-31.390624 31.394532-15.203126-102.25c10.914063-4.335938 17.117188-15.898438 14.691407-27.386719-2.421875-11.488281-12.769531-19.558594-24.503907-19.117188-11.730468.445313-21.4375 9.273438-22.988281 20.914063-1.550781 11.636718 5.507813 22.699218 16.714844 26.199218l12.375 83.199219-111.703125-111.671875c-3.125-3.125-8.1875-3.125-11.3125 0l-40 40 11.3125 11.3125 34.34375-34.34375 100.6875 100.6875-18.34375 18.34375 11.3125 11.3125 24-24c.453125-.515625.835938-1.089844 1.136719-1.703125l3.359375 22.582031-15.808594 15.808594 11.3125 11.3125 7.421875-7.425781 5.082031 34.097656c1.207032 9.84375 7.710938 18.234375 16.941406 21.859375 9.234376 3.625 19.707032 1.902344 27.292969-4.488281 7.582031-6.390625 11.058594-16.417969 9.054688-26.132813l-14.722657-68.984374 12.929688-12.925782c1.71875-1.71875 2.5625-4.121094 2.296875-6.535156zm-71.953125-103.121094c4.417969 0 8 3.582032 8 8 0 4.417969-3.582031 8-8 8s-8-3.582031-8-8c0-4.417968 3.582031-8 8-8zm55.785156 194.816406c.765625 3.964844-.695312 8.035157-3.816406 10.605469-3.117188 2.570313-7.394531 3.226563-11.140625 1.710938s-6.363281-4.957031-6.820313-8.972657l-6.808593-46.007812 16.089843-16.089844zm0 0"/><path d="m58.351562 311.148438 51.996094-51.996094 11.3125 11.3125-51.996094 51.996094zm0 0"/><path d="m83.136719 335.945312 51.996093-51.996093 11.316407 11.3125-52 51.996093zm0 0"/><path d="m107.941406 360.742188 30.398438-30.398438 11.316406 11.3125-30.402344 30.398438zm0 0"/><path d="m132.742188 385.546875 21.605468-21.601563 11.3125 11.3125-21.601562 21.605469zm0 0"/><path d="m157.542969 410.347656 16-15.996094 11.3125 11.3125-15.996094 15.996094zm0 0"/><path d="m288 440.003906c27.253906-.011718 53.785156-8.777344 75.679688-25.007812l57.695312 57.695312c9.753906 9.75 25.5625 9.75 35.3125 0s9.75-25.5625 0-35.3125l-59.03125-59.03125-1.023438 1.023438c30.628907-49.542969 23.902344-113.523438-16.351562-155.617188-40.257812-42.097656-103.875-51.667968-154.734375-23.28125-50.863281 28.386719-76.113281 87.558594-61.414063 143.921875 14.695313 56.359375 65.621094 95.667969 123.867188 95.609375zm157.375 8.6875c3.503906 3.503906 3.503906 9.183594 0 12.6875s-9.183594 3.503906-12.6875 0l-56.6875-56.679687c4.355469-4.121094 8.414062-8.539063 12.152344-13.222657zm-157.375-248.6875c61.855469 0 112 50.144532 112 112 0 61.855469-50.144531 112-112 112s-112-50.144531-112-112c.066406-61.828125 50.171875-111.933594 112-112zm0 0"/><path d="m288 408.003906c53.019531 0 96-42.980468 96-96 0-53.019531-42.980469-96-96-96s-96 42.980469-96 96c.058594 52.996094 43.003906 95.941406 96 96zm0-176c44.183594 0 80 35.816406 80 80s-35.816406 80-80 80-80-35.816406-80-80c.046875-44.164062 35.835938-79.953125 80-80zm0 0"/><path d="m296 344.003906h-16c-4.417969 0-8-3.582031-8-8h-16c0 13.253906 10.746094 24 24 24v16h16v-16c13.253906 0 24-10.746094 24-24v-8c0-13.253906-10.746094-24-24-24h-16c-4.417969 0-8-3.582031-8-8v-8c0-4.417968 3.582031-8 8-8h16c4.417969 0 8 3.582032 8 8h16c0-13.253906-10.746094-24-24-24v-16h-16v16c-13.253906 0-24 10.746094-24 24v8c0 13.253906 10.746094 24 24 24h16c4.417969 0 8 3.582032 8 8v8c0 4.417969-3.582031 8-8 8zm0 0"/><path d="m40 192.003906h53.441406l53.910156 38.503906c1.355469.972657 2.980469 1.496094 4.648438 1.496094 1.539062-.003906 3.046875-.449218 4.34375-1.28125 2.769531-1.789062 4.15625-5.089844 3.496094-8.320312l-6.078125-30.398438h46.238281c22.082031-.027344 39.972656-17.921875 40-40v-112c-.027344-22.082031-17.917969-39.972656-40-39.99999975h-160c-22.082031.02734375-39.9726562 17.91796875-40 39.99999975v112c.0273438 22.078125 17.917969 39.972656 40 40zm-24-152c0-13.253906 10.746094-24 24-24h160c13.253906 0 24 10.746094 24 24v112c0 13.253906-10.746094 24-24 24h-56c-2.402344 0-4.679688 1.078125-6.199219 2.9375-1.519531 1.863282-2.121093 4.308594-1.640625 6.660156l4 20.167969-39.535156-28.238281c-1.34375-.980469-2.960938-1.515625-4.625-1.527344h-56c-13.253906 0-24-10.746094-24-24zm0 0"/><path d="m40 160.003906h168v-16h-160v-21.335937l16-21.328125 17.601562 23.464844c1.605469 2.011718 4.039063 3.1875 6.613282 3.199218 2.597656-.070312 5-1.398437 6.441406-3.5625l26.054688-39.085937 33.136718 39.777343c1.527344 1.816407 3.777344 2.867188 6.152344 2.871094.25.015625.5.015625.753906 0 2.625-.25 4.957032-1.773437 6.238282-4.082031l40-72-13.984376-7.757813-34.335937 61.792969-32.519531-39.042969c-1.597656-1.976562-4.046875-3.0625-6.585938-2.910156-2.515625.136719-4.824218 1.453125-6.222656 3.550782l-25.726562 38.609374-17.21875-22.960937c-1.574219-1.914063-3.921876-3.023437-6.398438-3.023437s-4.824219 1.109374-6.398438 3.023437l-9.601562 12.800781v-56h-16v112c0 4.417969 3.582031 8 8 8zm0 0"/></svg>